<?xml version="1.0" encoding="iso-8859-1"?>
<!-- Generator: Adobe Illustrator 19.0.0, SVG Export Plug-In . SVG Version: 6.00 Build 0)  -->
<svg version="1.1" id="Layer_1" xmlns="http://www.w3.org/2000/svg" xmlns:xlink="http://www.w3.org/1999/xlink" x="0px" y="0px"
	 viewBox="0 0 30 30" style="enable-background:new 0 0 30 30;" xml:space="preserve">
<g>
	<g>
		<path d="M294.027,57.53H7.269c-3.876,0.012-7.319,3.33-7.268,7.255v171.812c0,3.959,3.21,7.169,7.168,7.169h286.958
			c3.959,0,7.169-3.21,7.169-7.169V64.785C301.345,60.89,297.909,57.506,294.027,57.53z M271.493,71.868l-120.844,85.079
			L29.804,71.868H271.493z M286.958,229.428H80.154l25.326-25.324c2.799-2.8,2.799-7.338,0-10.138c-2.8-2.799-7.338-2.799-10.139,0
			L59.88,229.428H24.856l34.086-34.085c2.799-2.8,2.799-7.339,0-10.139c-2.8-2.799-7.338-2.799-10.139,0L14.339,219.67v-35.988
			l35.732-35.732c2.799-2.8,2.799-7.339,0-10.139c-2.8-2.799-7.338-2.799-10.139,0l-25.594,25.595V78.512l132.184,93.063
			c2.475,1.742,5.778,1.742,8.253,0l132.184-93.063V229.428z"/>
	</g>
</g>
<g>
</g>
<g>
</g>
<g>
</g>
<g>
</g>
<g>
</g>
<g>
</g>
<g>
</g>
<g>
</g>
<g>
</g>
<g>
</g>
<g>
</g>
<g>
</g>
<g>
</g>
<g>
</g>
<g>
</g>
</svg>
