<svg width="22" height="14" viewBox="0 0 22 14" fill="none" xmlns="http://www.w3.org/2000/svg">
<path d="M16.5 0.85498C14.55 0.85498 12.45 1.15532 11 1.98126C9.55 1.15532 7.45 0.85498 5.5 0.85498C4.05 0.85498 2.51 1.02017 1.22 1.44816C0.49 1.69594 0 2.22905 0 2.83724V11.3069C0 12.283 1.22 13.0038 2.48 12.7636C3.46 12.5758 4.5 12.4933 5.5 12.4933C7.06 12.4933 8.72 12.6885 10.06 13.184C10.66 13.4093 11.34 13.4093 11.93 13.184C13.27 12.681 14.93 12.4933 16.49 12.4933C17.49 12.4933 18.53 12.5758 19.51 12.7636C20.77 13.0113 21.99 12.2905 21.99 11.3069V2.83724C21.99 2.22905 21.5 1.69594 20.77 1.44816C19.49 1.02017 17.95 0.85498 16.5 0.85498ZM20 10.4134C20 10.8864 19.42 11.2318 18.8 11.1492C18.05 11.0441 17.27 10.999 16.5 10.999C14.8 10.999 12.35 11.4871 11 12.1253V3.48298C12.35 2.84475 14.8 2.35669 16.5 2.35669C17.42 2.35669 18.33 2.42427 19.2 2.56693C19.66 2.64202 20 2.94987 20 3.30277V10.4134Z" fill="url(#paint0_linear_15_171)"/>
<path d="M12.9799 5.74311C12.6599 5.74311 12.3699 5.59294 12.2699 5.35267C12.1399 5.05983 12.3599 4.73697 12.7499 4.64686C14.2899 4.27143 16.2799 4.1513 18.1099 4.30898C18.5199 4.34652 18.8199 4.62434 18.7699 4.93219C18.7199 5.24004 18.3499 5.4653 17.9399 5.42775C16.3199 5.28509 14.5499 5.39772 13.2099 5.72059C13.1299 5.72809 13.0499 5.74311 12.9799 5.74311Z" fill="url(#paint1_linear_15_171)"/>
<path d="M12.9799 7.7403C12.6599 7.7403 12.3699 7.59013 12.2699 7.34986C12.1399 7.05703 12.3599 6.73416 12.7499 6.64405C14.2799 6.26863 16.2799 6.14849 18.1099 6.30617C18.5199 6.34371 18.8199 6.62153 18.7699 6.92938C18.7199 7.23723 18.3499 7.46249 17.9399 7.42495C16.3199 7.28228 14.5499 7.39491 13.2099 7.71778C13.1299 7.7328 13.0499 7.7403 12.9799 7.7403Z" fill="url(#paint2_linear_15_171)"/>
<path d="M12.9799 9.73762C12.6599 9.73762 12.3699 9.58745 12.2699 9.34717C12.1399 9.05434 12.3599 8.73147 12.7499 8.64137C14.2799 8.26594 16.2799 8.1458 18.1099 8.30348C18.5199 8.34103 18.8199 8.61884 18.7699 8.92669C18.7199 9.23455 18.3499 9.45229 17.9399 9.42226C16.3199 9.2796 14.5499 9.39223 13.2099 9.71509C13.1299 9.73011 13.0499 9.73762 12.9799 9.73762Z" fill="url(#paint3_linear_15_171)"/>
<defs>
<linearGradient id="paint0_linear_15_171" x1="10.995" y1="0.85498" x2="10.995" y2="13.353" gradientUnits="userSpaceOnUse">
<stop stop-color="#B6F829"/>
<stop offset="1" stop-color="#67DD0A"/>
</linearGradient>
<linearGradient id="paint1_linear_15_171" x1="15.5039" y1="4.24133" x2="15.5039" y2="5.74311" gradientUnits="userSpaceOnUse">
<stop stop-color="#B6F829"/>
<stop offset="1" stop-color="#67DD0A"/>
</linearGradient>
<linearGradient id="paint2_linear_15_171" x1="15.5039" y1="6.23853" x2="15.5039" y2="7.7403" gradientUnits="userSpaceOnUse">
<stop stop-color="#B6F829"/>
<stop offset="1" stop-color="#67DD0A"/>
</linearGradient>
<linearGradient id="paint3_linear_15_171" x1="15.5039" y1="8.23584" x2="15.5039" y2="9.73762" gradientUnits="userSpaceOnUse">
<stop stop-color="#B6F829"/>
<stop offset="1" stop-color="#67DD0A"/>
</linearGradient>
</defs>
</svg>
