<svg width="24" height="19" viewBox="0 0 24 19" fill="none" xmlns="http://www.w3.org/2000/svg">
<g clip-path="url(#clip0_15_182)">
<path d="M12.65 12.2393C12.79 11.969 12.7 11.6611 12.42 11.4509L10.33 9.90414L10.36 9.88161C12.1 8.42495 13.34 6.75054 14.07 4.97852H16.01C16.55 4.97852 17 4.64064 17 4.23517V4.22016C17 3.8147 16.55 3.47681 16.01 3.47681H10V2.72595C10 2.31298 9.55 1.9751 9 1.9751C8.45 1.9751 8 2.31298 8 2.72595V3.47681H1.99C1.45 3.47681 1 3.8147 1 4.22016C1 4.63313 1.45 4.96351 1.99 4.96351H12.17C11.5 6.42017 10.44 7.79423 9 8.9956C8.19 8.32734 7.51 7.59901 6.94 6.83314C6.78 6.61539 6.49 6.48023 6.16 6.48023C5.47 6.48023 5.03 7.04338 5.37 7.49389C6 8.34236 6.77 9.15328 7.67 9.90414L3.3 13.1403C2.9 13.4332 2.9 13.9137 3.3 14.2065C3.69 14.4994 4.32 14.4994 4.72 14.2065L9 10.9854L11.02 12.5021C11.53 12.885 12.4 12.7424 12.65 12.2393ZM17.5 7.98195C16.9 7.98195 16.36 8.25976 16.15 8.68775L12.48 16.0461C12.24 16.5042 12.7 16.9922 13.35 16.9922C13.74 16.9922 14.09 16.812 14.23 16.5342L15.12 14.7397H19.87L20.77 16.5342C20.91 16.8045 21.26 16.9922 21.65 16.9922C22.3 16.9922 22.76 16.5042 22.53 16.0461L18.86 8.68775C18.64 8.25976 18.1 7.98195 17.5 7.98195ZM15.88 13.2379L17.5 9.98673L19.12 13.2379H15.88Z" fill="url(#paint0_linear_15_182)"/>
</g>
<defs>
<linearGradient id="paint0_linear_15_182" x1="11.795" y1="1.9751" x2="11.795" y2="16.9922" gradientUnits="userSpaceOnUse">
<stop stop-color="#B6F829"/>
<stop offset="1" stop-color="#67DD0A"/>
</linearGradient>
<clipPath id="clip0_15_182">
<rect width="24" height="18.0205" fill="white" transform="translate(0 0.473389)"/>
</clipPath>
</defs>
</svg>
